G04 #@! TF.FileFunction,Copper,L1,Top,Signal*
%FSLAX46Y46*%
G04 Gerber Fmt 4.6, Leading zero omitted, Abs format (unit mm)*
G04 Created by KiCad (PCBNEW 4.0.2-stable) date 6/18/2016 4:09:09 AM*
%MOMM*%
G01*
G04 APERTURE LIST*
%ADD10C,0.100000*%
%ADD11R,3.600000X3.200000*%
%ADD12R,4.000000X4.000000*%
%ADD13R,2.032000X1.727200*%
%ADD14O,2.032000X1.727200*%
%ADD15R,1.500000X1.300000*%
%ADD16R,1.998980X0.899160*%
%ADD17R,1.998980X1.000760*%
%ADD18C,3.500000*%
%ADD19C,2.000000*%
%ADD20C,1.800000*%
%ADD21C,0.300000*%
G04 APERTURE END LIST*
D10*
D11*
X82742600Y-116586000D03*
X90942600Y-116586000D03*
X82768000Y-129006600D03*
X90968000Y-129006600D03*
D12*
X77800200Y-119976900D03*
X77825600Y-126365000D03*
D13*
X107759500Y-120535700D03*
D14*
X107759500Y-123075700D03*
X107759500Y-125615700D03*
D15*
X100600500Y-129044700D03*
X97900500Y-129044700D03*
X100600500Y-116522500D03*
X97900500Y-116522500D03*
X104504500Y-116547900D03*
X107204500Y-116547900D03*
D16*
X95387160Y-124386340D03*
D17*
X95387160Y-121737120D03*
X102986840Y-121737120D03*
X102986840Y-124338080D03*
D18*
X77444600Y-115062000D03*
X107467400Y-131038600D03*
D19*
X77800200Y-119976900D02*
X78905100Y-119976900D01*
X78905100Y-119976900D02*
X82296000Y-116586000D01*
X82296000Y-116586000D02*
X82742600Y-116586000D01*
D20*
X90968000Y-129006600D02*
X97862400Y-129006600D01*
X97862400Y-129006600D02*
X97900500Y-129044700D01*
X97900500Y-116522500D02*
X91006100Y-116522500D01*
X91006100Y-116522500D02*
X90942600Y-116586000D01*
X97900500Y-129044700D02*
X91006100Y-129044700D01*
D19*
X91006100Y-129044700D02*
X90968000Y-129006600D01*
X77825600Y-126365000D02*
X78613000Y-126365000D01*
X78613000Y-126365000D02*
X81280000Y-129032000D01*
X81280000Y-129032000D02*
X82742600Y-129032000D01*
X82742600Y-129032000D02*
X82768000Y-129006600D01*
D20*
X107204500Y-116547900D02*
X107204500Y-119980700D01*
X107204500Y-119980700D02*
X107759500Y-120535700D01*
X104504500Y-116547900D02*
X104504500Y-120219460D01*
X104504500Y-120219460D02*
X102986840Y-121737120D01*
X102986840Y-121737120D02*
X105011318Y-121737120D01*
X105011318Y-121737120D02*
X106349898Y-123075700D01*
X106349898Y-123075700D02*
X107759500Y-123075700D01*
X95387160Y-124386340D02*
X98392140Y-124386340D01*
X98392140Y-124386340D02*
X98465800Y-124460000D01*
X98465800Y-124460000D02*
X99822000Y-124460000D01*
X99822000Y-124460000D02*
X100600500Y-125238500D01*
X100600500Y-125238500D02*
X100600500Y-129044700D01*
X102986840Y-124338080D02*
X95435420Y-124338080D01*
X95435420Y-124338080D02*
X95387160Y-124386340D01*
X102986840Y-124338080D02*
X104264460Y-125615700D01*
X104264460Y-125615700D02*
X107759500Y-125615700D01*
X100600500Y-116522500D02*
X100600500Y-118972500D01*
X100600500Y-118972500D02*
X97835880Y-121737120D01*
X97835880Y-121737120D02*
X95387160Y-121737120D01*
D21*
G36*
X108741000Y-116439812D02*
X108643904Y-115951679D01*
X108625390Y-115923971D01*
X108625390Y-115897900D01*
X108579508Y-115654060D01*
X108435399Y-115430108D01*
X108215514Y-115279867D01*
X107988348Y-115233864D01*
X107800721Y-115108496D01*
X107204500Y-114989900D01*
X106608279Y-115108496D01*
X106421663Y-115233189D01*
X106210660Y-115272892D01*
X105986708Y-115417001D01*
X105852942Y-115612775D01*
X105735399Y-115430108D01*
X105515514Y-115279867D01*
X105288348Y-115233864D01*
X105100721Y-115108496D01*
X104504500Y-114989900D01*
X103908279Y-115108496D01*
X103721663Y-115233189D01*
X103510660Y-115272892D01*
X103286708Y-115417001D01*
X103136467Y-115636886D01*
X103083610Y-115897900D01*
X103083610Y-115923971D01*
X103065096Y-115951679D01*
X102946500Y-116547900D01*
X102946500Y-119574115D01*
X101947214Y-120573402D01*
X101743510Y-120611732D01*
X101519558Y-120755841D01*
X101369317Y-120975726D01*
X101316460Y-121236740D01*
X101316460Y-122237500D01*
X101362342Y-122481340D01*
X101506451Y-122705292D01*
X101726336Y-122855533D01*
X101987350Y-122908390D01*
X101989329Y-122908390D01*
X102390619Y-123176524D01*
X102406586Y-123179700D01*
X101856466Y-123179700D01*
X101614623Y-123279874D01*
X101429525Y-123464973D01*
X101329350Y-123706815D01*
X101329350Y-124069580D01*
X101493850Y-124234080D01*
X102882840Y-124234080D01*
X102882840Y-124214080D01*
X103090840Y-124214080D01*
X103090840Y-124234080D01*
X104479830Y-124234080D01*
X104644330Y-124069580D01*
X104644330Y-123706815D01*
X104550044Y-123479190D01*
X105248226Y-124177372D01*
X105753677Y-124515104D01*
X106349898Y-124633700D01*
X106457990Y-124633700D01*
X106403213Y-124681200D01*
X106137236Y-125213042D01*
X106124017Y-125275506D01*
X106253991Y-125511700D01*
X107655500Y-125511700D01*
X107655500Y-125491700D01*
X107863500Y-125491700D01*
X107863500Y-125511700D01*
X107883500Y-125511700D01*
X107883500Y-125719700D01*
X107863500Y-125719700D01*
X107863500Y-126974450D01*
X108102385Y-127127768D01*
X108666529Y-126939773D01*
X108741000Y-126875196D01*
X108741000Y-128960101D01*
X107948482Y-128631018D01*
X106990520Y-128630182D01*
X106105159Y-128996006D01*
X105427187Y-129672796D01*
X105059818Y-130557518D01*
X105058982Y-131515480D01*
X105398675Y-132337600D01*
X76171000Y-132337600D01*
X76171000Y-129035890D01*
X78939124Y-129035890D01*
X80107617Y-130204383D01*
X80297110Y-130330998D01*
X80297110Y-130606600D01*
X80342992Y-130850440D01*
X80487101Y-131074392D01*
X80706986Y-131224633D01*
X80968000Y-131277490D01*
X84568000Y-131277490D01*
X84811840Y-131231608D01*
X85035792Y-131087499D01*
X85186033Y-130867614D01*
X85238890Y-130606600D01*
X85238890Y-127406600D01*
X88497110Y-127406600D01*
X88497110Y-130606600D01*
X88542992Y-130850440D01*
X88687101Y-131074392D01*
X88906986Y-131224633D01*
X89168000Y-131277490D01*
X92768000Y-131277490D01*
X93011840Y-131231608D01*
X93235792Y-131087499D01*
X93386033Y-130867614D01*
X93438890Y-130606600D01*
X93438890Y-130602700D01*
X97900500Y-130602700D01*
X98496721Y-130484105D01*
X98683339Y-130359411D01*
X98894340Y-130319708D01*
X99118292Y-130175599D01*
X99254754Y-129975880D01*
X99292675Y-130067427D01*
X99477773Y-130252526D01*
X99719616Y-130352700D01*
X100332000Y-130352700D01*
X100496500Y-130188200D01*
X100496500Y-129148700D01*
X100704500Y-129148700D01*
X100704500Y-130188200D01*
X100869000Y-130352700D01*
X101481384Y-130352700D01*
X101723227Y-130252526D01*
X101908325Y-130067427D01*
X102008500Y-129825585D01*
X102008500Y-129313200D01*
X101844000Y-129148700D01*
X100704500Y-129148700D01*
X100496500Y-129148700D01*
X100476500Y-129148700D01*
X100476500Y-128940700D01*
X100496500Y-128940700D01*
X100496500Y-127901200D01*
X100704500Y-127901200D01*
X100704500Y-128940700D01*
X101844000Y-128940700D01*
X102008500Y-128776200D01*
X102008500Y-128263815D01*
X101908325Y-128021973D01*
X101723227Y-127836874D01*
X101481384Y-127736700D01*
X100869000Y-127736700D01*
X100704500Y-127901200D01*
X100496500Y-127901200D01*
X100332000Y-127736700D01*
X99719616Y-127736700D01*
X99477773Y-127836874D01*
X99292675Y-128021973D01*
X99253472Y-128116616D01*
X99131399Y-127926908D01*
X98911514Y-127776667D01*
X98711496Y-127736162D01*
X98458621Y-127567196D01*
X97862400Y-127448600D01*
X93438890Y-127448600D01*
X93438890Y-127406600D01*
X93393008Y-127162760D01*
X93248899Y-126938808D01*
X93029014Y-126788567D01*
X92768000Y-126735710D01*
X89168000Y-126735710D01*
X88924160Y-126781592D01*
X88700208Y-126925701D01*
X88549967Y-127145586D01*
X88497110Y-127406600D01*
X85238890Y-127406600D01*
X85193008Y-127162760D01*
X85048899Y-126938808D01*
X84829014Y-126788567D01*
X84568000Y-126735710D01*
X81328476Y-126735710D01*
X80548660Y-125955894D01*
X106124017Y-125955894D01*
X106137236Y-126018358D01*
X106403213Y-126550200D01*
X106852471Y-126939773D01*
X107416615Y-127127768D01*
X107655500Y-126974450D01*
X107655500Y-125719700D01*
X106253991Y-125719700D01*
X106124017Y-125955894D01*
X80548660Y-125955894D01*
X80496490Y-125903724D01*
X80496490Y-124654840D01*
X93729670Y-124654840D01*
X93729670Y-124966805D01*
X93829845Y-125208647D01*
X94014943Y-125393746D01*
X94256786Y-125493920D01*
X95118660Y-125493920D01*
X95283160Y-125329420D01*
X95283160Y-124490340D01*
X95491160Y-124490340D01*
X95491160Y-125329420D01*
X95655660Y-125493920D01*
X96517534Y-125493920D01*
X96759377Y-125393746D01*
X96944475Y-125208647D01*
X97044650Y-124966805D01*
X97044650Y-124654840D01*
X96996390Y-124606580D01*
X101329350Y-124606580D01*
X101329350Y-124969345D01*
X101429525Y-125211187D01*
X101614623Y-125396286D01*
X101856466Y-125496460D01*
X102718340Y-125496460D01*
X102882840Y-125331960D01*
X102882840Y-124442080D01*
X103090840Y-124442080D01*
X103090840Y-125331960D01*
X103255340Y-125496460D01*
X104117214Y-125496460D01*
X104359057Y-125396286D01*
X104544155Y-125211187D01*
X104644330Y-124969345D01*
X104644330Y-124606580D01*
X104479830Y-124442080D01*
X103090840Y-124442080D01*
X102882840Y-124442080D01*
X101493850Y-124442080D01*
X101329350Y-124606580D01*
X96996390Y-124606580D01*
X96880150Y-124490340D01*
X95491160Y-124490340D01*
X95283160Y-124490340D01*
X93894170Y-124490340D01*
X93729670Y-124654840D01*
X80496490Y-124654840D01*
X80496490Y-124365000D01*
X80450608Y-124121160D01*
X80306499Y-123897208D01*
X80086614Y-123746967D01*
X79825600Y-123694110D01*
X76171000Y-123694110D01*
X76171000Y-122647790D01*
X79800200Y-122647790D01*
X80044040Y-122601908D01*
X80267992Y-122457799D01*
X80418233Y-122237914D01*
X80471090Y-121976900D01*
X80471090Y-120755676D01*
X82369876Y-118856890D01*
X84542600Y-118856890D01*
X84786440Y-118811008D01*
X85010392Y-118666899D01*
X85160633Y-118447014D01*
X85213490Y-118186000D01*
X85213490Y-114986000D01*
X88471710Y-114986000D01*
X88471710Y-118186000D01*
X88517592Y-118429840D01*
X88661701Y-118653792D01*
X88881586Y-118804033D01*
X89142600Y-118856890D01*
X92742600Y-118856890D01*
X92986440Y-118811008D01*
X93210392Y-118666899D01*
X93360633Y-118447014D01*
X93413490Y-118186000D01*
X93413490Y-118080500D01*
X97900500Y-118080500D01*
X98496721Y-117961904D01*
X98683337Y-117837211D01*
X98894340Y-117797508D01*
X99042500Y-117702170D01*
X99042500Y-118327156D01*
X97190536Y-120179120D01*
X95387160Y-120179120D01*
X94790939Y-120297716D01*
X94389649Y-120565850D01*
X94387670Y-120565850D01*
X94143830Y-120611732D01*
X93919878Y-120755841D01*
X93769637Y-120975726D01*
X93716780Y-121236740D01*
X93716780Y-122237500D01*
X93762662Y-122481340D01*
X93906771Y-122705292D01*
X94126656Y-122855533D01*
X94387670Y-122908390D01*
X94389649Y-122908390D01*
X94790939Y-123176524D01*
X95304913Y-123278760D01*
X95283158Y-123278760D01*
X95283158Y-123443258D01*
X95118660Y-123278760D01*
X94256786Y-123278760D01*
X94014943Y-123378934D01*
X93829845Y-123564033D01*
X93729670Y-123805875D01*
X93729670Y-124117840D01*
X93894170Y-124282340D01*
X95283160Y-124282340D01*
X95283160Y-124262340D01*
X95491160Y-124262340D01*
X95491160Y-124282340D01*
X96880150Y-124282340D01*
X97044650Y-124117840D01*
X97044650Y-123805875D01*
X96944475Y-123564033D01*
X96759377Y-123378934D01*
X96557031Y-123295120D01*
X97835880Y-123295120D01*
X98432101Y-123176524D01*
X98937552Y-122838792D01*
X101702172Y-120074172D01*
X101970828Y-119672100D01*
X102039904Y-119568721D01*
X102158500Y-118972500D01*
X102158500Y-116522500D01*
X102039904Y-115926279D01*
X102021390Y-115898571D01*
X102021390Y-115872500D01*
X101975508Y-115628660D01*
X101831399Y-115404708D01*
X101611514Y-115254467D01*
X101384348Y-115208464D01*
X101196721Y-115083096D01*
X100600500Y-114964500D01*
X100004279Y-115083096D01*
X99817663Y-115207789D01*
X99606660Y-115247492D01*
X99382708Y-115391601D01*
X99248942Y-115587375D01*
X99131399Y-115404708D01*
X98911514Y-115254467D01*
X98684348Y-115208464D01*
X98496721Y-115083096D01*
X97900500Y-114964500D01*
X93409444Y-114964500D01*
X93367608Y-114742160D01*
X93223499Y-114518208D01*
X93003614Y-114367967D01*
X92742600Y-114315110D01*
X89142600Y-114315110D01*
X88898760Y-114360992D01*
X88674808Y-114505101D01*
X88524567Y-114724986D01*
X88471710Y-114986000D01*
X85213490Y-114986000D01*
X85167608Y-114742160D01*
X85023499Y-114518208D01*
X84803614Y-114367967D01*
X84542600Y-114315110D01*
X80942600Y-114315110D01*
X80698760Y-114360992D01*
X80474808Y-114505101D01*
X80324567Y-114724986D01*
X80271710Y-114986000D01*
X80271710Y-116265524D01*
X79231224Y-117306010D01*
X78319377Y-117306010D01*
X78806841Y-117104594D01*
X79484813Y-116427804D01*
X79852182Y-115543082D01*
X79853018Y-114585120D01*
X79513325Y-113763000D01*
X108741000Y-113763000D01*
X108741000Y-116439812D01*
X108741000Y-116439812D01*
G37*
X108741000Y-116439812D02*
X108643904Y-115951679D01*
X108625390Y-115923971D01*
X108625390Y-115897900D01*
X108579508Y-115654060D01*
X108435399Y-115430108D01*
X108215514Y-115279867D01*
X107988348Y-115233864D01*
X107800721Y-115108496D01*
X107204500Y-114989900D01*
X106608279Y-115108496D01*
X106421663Y-115233189D01*
X106210660Y-115272892D01*
X105986708Y-115417001D01*
X105852942Y-115612775D01*
X105735399Y-115430108D01*
X105515514Y-115279867D01*
X105288348Y-115233864D01*
X105100721Y-115108496D01*
X104504500Y-114989900D01*
X103908279Y-115108496D01*
X103721663Y-115233189D01*
X103510660Y-115272892D01*
X103286708Y-115417001D01*
X103136467Y-115636886D01*
X103083610Y-115897900D01*
X103083610Y-115923971D01*
X103065096Y-115951679D01*
X102946500Y-116547900D01*
X102946500Y-119574115D01*
X101947214Y-120573402D01*
X101743510Y-120611732D01*
X101519558Y-120755841D01*
X101369317Y-120975726D01*
X101316460Y-121236740D01*
X101316460Y-122237500D01*
X101362342Y-122481340D01*
X101506451Y-122705292D01*
X101726336Y-122855533D01*
X101987350Y-122908390D01*
X101989329Y-122908390D01*
X102390619Y-123176524D01*
X102406586Y-123179700D01*
X101856466Y-123179700D01*
X101614623Y-123279874D01*
X101429525Y-123464973D01*
X101329350Y-123706815D01*
X101329350Y-124069580D01*
X101493850Y-124234080D01*
X102882840Y-124234080D01*
X102882840Y-124214080D01*
X103090840Y-124214080D01*
X103090840Y-124234080D01*
X104479830Y-124234080D01*
X104644330Y-124069580D01*
X104644330Y-123706815D01*
X104550044Y-123479190D01*
X105248226Y-124177372D01*
X105753677Y-124515104D01*
X106349898Y-124633700D01*
X106457990Y-124633700D01*
X106403213Y-124681200D01*
X106137236Y-125213042D01*
X106124017Y-125275506D01*
X106253991Y-125511700D01*
X107655500Y-125511700D01*
X107655500Y-125491700D01*
X107863500Y-125491700D01*
X107863500Y-125511700D01*
X107883500Y-125511700D01*
X107883500Y-125719700D01*
X107863500Y-125719700D01*
X107863500Y-126974450D01*
X108102385Y-127127768D01*
X108666529Y-126939773D01*
X108741000Y-126875196D01*
X108741000Y-128960101D01*
X107948482Y-128631018D01*
X106990520Y-128630182D01*
X106105159Y-128996006D01*
X105427187Y-129672796D01*
X105059818Y-130557518D01*
X105058982Y-131515480D01*
X105398675Y-132337600D01*
X76171000Y-132337600D01*
X76171000Y-129035890D01*
X78939124Y-129035890D01*
X80107617Y-130204383D01*
X80297110Y-130330998D01*
X80297110Y-130606600D01*
X80342992Y-130850440D01*
X80487101Y-131074392D01*
X80706986Y-131224633D01*
X80968000Y-131277490D01*
X84568000Y-131277490D01*
X84811840Y-131231608D01*
X85035792Y-131087499D01*
X85186033Y-130867614D01*
X85238890Y-130606600D01*
X85238890Y-127406600D01*
X88497110Y-127406600D01*
X88497110Y-130606600D01*
X88542992Y-130850440D01*
X88687101Y-131074392D01*
X88906986Y-131224633D01*
X89168000Y-131277490D01*
X92768000Y-131277490D01*
X93011840Y-131231608D01*
X93235792Y-131087499D01*
X93386033Y-130867614D01*
X93438890Y-130606600D01*
X93438890Y-130602700D01*
X97900500Y-130602700D01*
X98496721Y-130484105D01*
X98683339Y-130359411D01*
X98894340Y-130319708D01*
X99118292Y-130175599D01*
X99254754Y-129975880D01*
X99292675Y-130067427D01*
X99477773Y-130252526D01*
X99719616Y-130352700D01*
X100332000Y-130352700D01*
X100496500Y-130188200D01*
X100496500Y-129148700D01*
X100704500Y-129148700D01*
X100704500Y-130188200D01*
X100869000Y-130352700D01*
X101481384Y-130352700D01*
X101723227Y-130252526D01*
X101908325Y-130067427D01*
X102008500Y-129825585D01*
X102008500Y-129313200D01*
X101844000Y-129148700D01*
X100704500Y-129148700D01*
X100496500Y-129148700D01*
X100476500Y-129148700D01*
X100476500Y-128940700D01*
X100496500Y-128940700D01*
X100496500Y-127901200D01*
X100704500Y-127901200D01*
X100704500Y-128940700D01*
X101844000Y-128940700D01*
X102008500Y-128776200D01*
X102008500Y-128263815D01*
X101908325Y-128021973D01*
X101723227Y-127836874D01*
X101481384Y-127736700D01*
X100869000Y-127736700D01*
X100704500Y-127901200D01*
X100496500Y-127901200D01*
X100332000Y-127736700D01*
X99719616Y-127736700D01*
X99477773Y-127836874D01*
X99292675Y-128021973D01*
X99253472Y-128116616D01*
X99131399Y-127926908D01*
X98911514Y-127776667D01*
X98711496Y-127736162D01*
X98458621Y-127567196D01*
X97862400Y-127448600D01*
X93438890Y-127448600D01*
X93438890Y-127406600D01*
X93393008Y-127162760D01*
X93248899Y-126938808D01*
X93029014Y-126788567D01*
X92768000Y-126735710D01*
X89168000Y-126735710D01*
X88924160Y-126781592D01*
X88700208Y-126925701D01*
X88549967Y-127145586D01*
X88497110Y-127406600D01*
X85238890Y-127406600D01*
X85193008Y-127162760D01*
X85048899Y-126938808D01*
X84829014Y-126788567D01*
X84568000Y-126735710D01*
X81328476Y-126735710D01*
X80548660Y-125955894D01*
X106124017Y-125955894D01*
X106137236Y-126018358D01*
X106403213Y-126550200D01*
X106852471Y-126939773D01*
X107416615Y-127127768D01*
X107655500Y-126974450D01*
X107655500Y-125719700D01*
X106253991Y-125719700D01*
X106124017Y-125955894D01*
X80548660Y-125955894D01*
X80496490Y-125903724D01*
X80496490Y-124654840D01*
X93729670Y-124654840D01*
X93729670Y-124966805D01*
X93829845Y-125208647D01*
X94014943Y-125393746D01*
X94256786Y-125493920D01*
X95118660Y-125493920D01*
X95283160Y-125329420D01*
X95283160Y-124490340D01*
X95491160Y-124490340D01*
X95491160Y-125329420D01*
X95655660Y-125493920D01*
X96517534Y-125493920D01*
X96759377Y-125393746D01*
X96944475Y-125208647D01*
X97044650Y-124966805D01*
X97044650Y-124654840D01*
X96996390Y-124606580D01*
X101329350Y-124606580D01*
X101329350Y-124969345D01*
X101429525Y-125211187D01*
X101614623Y-125396286D01*
X101856466Y-125496460D01*
X102718340Y-125496460D01*
X102882840Y-125331960D01*
X102882840Y-124442080D01*
X103090840Y-124442080D01*
X103090840Y-125331960D01*
X103255340Y-125496460D01*
X104117214Y-125496460D01*
X104359057Y-125396286D01*
X104544155Y-125211187D01*
X104644330Y-124969345D01*
X104644330Y-124606580D01*
X104479830Y-124442080D01*
X103090840Y-124442080D01*
X102882840Y-124442080D01*
X101493850Y-124442080D01*
X101329350Y-124606580D01*
X96996390Y-124606580D01*
X96880150Y-124490340D01*
X95491160Y-124490340D01*
X95283160Y-124490340D01*
X93894170Y-124490340D01*
X93729670Y-124654840D01*
X80496490Y-124654840D01*
X80496490Y-124365000D01*
X80450608Y-124121160D01*
X80306499Y-123897208D01*
X80086614Y-123746967D01*
X79825600Y-123694110D01*
X76171000Y-123694110D01*
X76171000Y-122647790D01*
X79800200Y-122647790D01*
X80044040Y-122601908D01*
X80267992Y-122457799D01*
X80418233Y-122237914D01*
X80471090Y-121976900D01*
X80471090Y-120755676D01*
X82369876Y-118856890D01*
X84542600Y-118856890D01*
X84786440Y-118811008D01*
X85010392Y-118666899D01*
X85160633Y-118447014D01*
X85213490Y-118186000D01*
X85213490Y-114986000D01*
X88471710Y-114986000D01*
X88471710Y-118186000D01*
X88517592Y-118429840D01*
X88661701Y-118653792D01*
X88881586Y-118804033D01*
X89142600Y-118856890D01*
X92742600Y-118856890D01*
X92986440Y-118811008D01*
X93210392Y-118666899D01*
X93360633Y-118447014D01*
X93413490Y-118186000D01*
X93413490Y-118080500D01*
X97900500Y-118080500D01*
X98496721Y-117961904D01*
X98683337Y-117837211D01*
X98894340Y-117797508D01*
X99042500Y-117702170D01*
X99042500Y-118327156D01*
X97190536Y-120179120D01*
X95387160Y-120179120D01*
X94790939Y-120297716D01*
X94389649Y-120565850D01*
X94387670Y-120565850D01*
X94143830Y-120611732D01*
X93919878Y-120755841D01*
X93769637Y-120975726D01*
X93716780Y-121236740D01*
X93716780Y-122237500D01*
X93762662Y-122481340D01*
X93906771Y-122705292D01*
X94126656Y-122855533D01*
X94387670Y-122908390D01*
X94389649Y-122908390D01*
X94790939Y-123176524D01*
X95304913Y-123278760D01*
X95283158Y-123278760D01*
X95283158Y-123443258D01*
X95118660Y-123278760D01*
X94256786Y-123278760D01*
X94014943Y-123378934D01*
X93829845Y-123564033D01*
X93729670Y-123805875D01*
X93729670Y-124117840D01*
X93894170Y-124282340D01*
X95283160Y-124282340D01*
X95283160Y-124262340D01*
X95491160Y-124262340D01*
X95491160Y-124282340D01*
X96880150Y-124282340D01*
X97044650Y-124117840D01*
X97044650Y-123805875D01*
X96944475Y-123564033D01*
X96759377Y-123378934D01*
X96557031Y-123295120D01*
X97835880Y-123295120D01*
X98432101Y-123176524D01*
X98937552Y-122838792D01*
X101702172Y-120074172D01*
X101970828Y-119672100D01*
X102039904Y-119568721D01*
X102158500Y-118972500D01*
X102158500Y-116522500D01*
X102039904Y-115926279D01*
X102021390Y-115898571D01*
X102021390Y-115872500D01*
X101975508Y-115628660D01*
X101831399Y-115404708D01*
X101611514Y-115254467D01*
X101384348Y-115208464D01*
X101196721Y-115083096D01*
X100600500Y-114964500D01*
X100004279Y-115083096D01*
X99817663Y-115207789D01*
X99606660Y-115247492D01*
X99382708Y-115391601D01*
X99248942Y-115587375D01*
X99131399Y-115404708D01*
X98911514Y-115254467D01*
X98684348Y-115208464D01*
X98496721Y-115083096D01*
X97900500Y-114964500D01*
X93409444Y-114964500D01*
X93367608Y-114742160D01*
X93223499Y-114518208D01*
X93003614Y-114367967D01*
X92742600Y-114315110D01*
X89142600Y-114315110D01*
X88898760Y-114360992D01*
X88674808Y-114505101D01*
X88524567Y-114724986D01*
X88471710Y-114986000D01*
X85213490Y-114986000D01*
X85167608Y-114742160D01*
X85023499Y-114518208D01*
X84803614Y-114367967D01*
X84542600Y-114315110D01*
X80942600Y-114315110D01*
X80698760Y-114360992D01*
X80474808Y-114505101D01*
X80324567Y-114724986D01*
X80271710Y-114986000D01*
X80271710Y-116265524D01*
X79231224Y-117306010D01*
X78319377Y-117306010D01*
X78806841Y-117104594D01*
X79484813Y-116427804D01*
X79852182Y-115543082D01*
X79853018Y-114585120D01*
X79513325Y-113763000D01*
X108741000Y-113763000D01*
X108741000Y-116439812D01*
M02*
