G04 #@! TF.FileFunction,Copper,L1,Top,Signal*
%FSLAX46Y46*%
G04 Gerber Fmt 4.6, Leading zero omitted, Abs format (unit mm)*
G04 Created by KiCad (PCBNEW 4.0.2-stable) date 7/13/2016 7:45:57 PM*
%MOMM*%
G01*
G04 APERTURE LIST*
%ADD10C,0.100000*%
%ADD11R,3.962400X1.981200*%
%ADD12C,3.500000*%
%ADD13R,2.235200X2.235200*%
%ADD14R,3.000000X1.000000*%
%ADD15R,3.000000X1.000760*%
%ADD16R,3.000000X1.100000*%
%ADD17R,1.500000X1.300000*%
%ADD18R,1.501140X2.700020*%
%ADD19C,1.800000*%
%ADD20C,1.300000*%
%ADD21C,1.000000*%
%ADD22C,2.100000*%
%ADD23C,1.100000*%
%ADD24C,1.500000*%
%ADD25C,0.300000*%
G04 APERTURE END LIST*
D10*
D11*
X107188000Y-115392200D03*
X107188000Y-120392200D03*
X107188000Y-125392200D03*
D12*
X77444600Y-115062000D03*
X107467400Y-131038600D03*
D13*
X102824280Y-130774440D03*
X102727760Y-115397280D03*
X77871320Y-129753360D03*
D14*
X93291660Y-124538740D03*
D15*
X93291660Y-121889520D03*
X100891340Y-121889520D03*
D16*
X100891340Y-124490480D03*
D17*
X94992200Y-116408200D03*
X97692200Y-116408200D03*
X88040200Y-123126500D03*
X85340200Y-123126500D03*
X94992200Y-128511300D03*
X97692200Y-128511300D03*
D13*
X77825600Y-124825760D03*
X77800200Y-119976900D03*
D18*
X87972900Y-128651000D03*
X83172300Y-128651000D03*
X87896700Y-116814600D03*
X83096100Y-116814600D03*
D19*
X77800200Y-119976900D02*
X79933800Y-119976900D01*
X79933800Y-119976900D02*
X83096100Y-116814600D01*
D20*
X87989400Y-128511300D02*
X94869000Y-128511300D01*
D21*
X94852500Y-128651000D02*
X94992200Y-128511300D01*
D19*
X85340200Y-123126500D02*
X85340200Y-125065800D01*
X85340200Y-125065800D02*
X87972900Y-127698500D01*
X87972900Y-127698500D02*
X87972900Y-128651000D01*
X87896700Y-116814600D02*
X87896700Y-118491000D01*
X87896700Y-118491000D02*
X85340200Y-121047500D01*
X85340200Y-121047500D02*
X85340200Y-123126500D01*
X77825600Y-124825760D02*
X79347060Y-124825760D01*
X79347060Y-124825760D02*
X83172300Y-128651000D01*
D20*
X97692200Y-116408200D02*
X101716840Y-116408200D01*
X101716840Y-116408200D02*
X102727760Y-115397280D01*
D22*
X102727760Y-115397280D02*
X107182920Y-115397280D01*
D19*
X107182920Y-115397280D02*
X107188000Y-115392200D01*
D20*
X94992200Y-116408200D02*
X94992200Y-117915700D01*
X94992200Y-117915700D02*
X96431100Y-119354600D01*
X96431100Y-119354600D02*
X101015800Y-119354600D01*
X101015800Y-119354600D02*
X105511600Y-119354600D01*
X100891340Y-121889520D02*
X100891340Y-119479060D01*
X100891340Y-119479060D02*
X101015800Y-119354600D01*
D19*
X106549200Y-120392200D02*
X107188000Y-120392200D01*
D20*
X105511600Y-119354600D02*
X106549200Y-120392200D01*
D23*
X100891340Y-124490480D02*
X100911660Y-124510800D01*
X100911660Y-124510800D02*
X106265960Y-124510800D01*
X106062780Y-125026420D02*
X106083100Y-125006100D01*
D21*
X105727500Y-124688600D02*
X106484400Y-124688600D01*
X106484400Y-124688600D02*
X107188000Y-125392200D01*
D23*
X93291660Y-124538740D02*
X97692200Y-124538740D01*
D21*
X97692200Y-124538740D02*
X97692200Y-126686300D01*
D23*
X100871020Y-124548900D02*
X97713800Y-124548900D01*
D21*
X97734120Y-124490480D02*
X97692200Y-124532400D01*
X97692200Y-124532400D02*
X97692200Y-126686300D01*
X97692200Y-126686300D02*
X97692200Y-128511300D01*
D19*
X101582220Y-132016500D02*
X97726500Y-132016500D01*
X97726500Y-132016500D02*
X80134460Y-132016500D01*
D24*
X97692200Y-128511300D02*
X97692200Y-131982200D01*
D19*
X97692200Y-131982200D02*
X97726500Y-132016500D01*
X107188000Y-125392200D02*
X107053380Y-125257580D01*
X102824280Y-130774440D02*
X101582220Y-132016500D01*
X80134460Y-132016500D02*
X77871320Y-129753360D01*
X102859840Y-130738880D02*
X102824280Y-130774440D01*
D21*
X93291660Y-121889520D02*
X89277180Y-121889520D01*
X89277180Y-121889520D02*
X88040200Y-123126500D01*
D25*
G36*
X101142368Y-113798781D02*
X100992127Y-114018666D01*
X100939270Y-114279680D01*
X100939270Y-115100200D01*
X98505852Y-115100200D01*
X98442200Y-115087310D01*
X96942200Y-115087310D01*
X96698360Y-115133192D01*
X96474408Y-115277301D01*
X96340642Y-115473075D01*
X96223099Y-115290408D01*
X96003214Y-115140167D01*
X95742200Y-115087310D01*
X94242200Y-115087310D01*
X93998360Y-115133192D01*
X93774408Y-115277301D01*
X93624167Y-115497186D01*
X93571310Y-115758200D01*
X93571310Y-117058200D01*
X93617192Y-117302040D01*
X93684200Y-117406174D01*
X93684200Y-117915700D01*
X93783766Y-118416250D01*
X94067304Y-118840596D01*
X95506204Y-120279496D01*
X95930550Y-120563034D01*
X96431100Y-120662601D01*
X96431105Y-120662600D01*
X99583340Y-120662600D01*
X99583340Y-120718250D01*
X99391340Y-120718250D01*
X99147500Y-120764132D01*
X98923548Y-120908241D01*
X98773307Y-121128126D01*
X98720450Y-121389140D01*
X98720450Y-122389900D01*
X98766332Y-122633740D01*
X98910441Y-122857692D01*
X99130326Y-123007933D01*
X99391340Y-123060790D01*
X100335170Y-123060790D01*
X100390790Y-123097954D01*
X100891340Y-123197520D01*
X101391890Y-123097954D01*
X101447510Y-123060790D01*
X102391340Y-123060790D01*
X102635180Y-123014908D01*
X102859132Y-122870799D01*
X103009373Y-122650914D01*
X103062230Y-122389900D01*
X103062230Y-121389140D01*
X103016348Y-121145300D01*
X102872239Y-120921348D01*
X102652354Y-120771107D01*
X102391340Y-120718250D01*
X102199340Y-120718250D01*
X102199340Y-120662600D01*
X104535910Y-120662600D01*
X104535910Y-121382800D01*
X104581792Y-121626640D01*
X104725901Y-121850592D01*
X104945786Y-122000833D01*
X105206800Y-122053690D01*
X108741000Y-122053690D01*
X108741000Y-123743600D01*
X107456500Y-123743600D01*
X107292000Y-123908100D01*
X107292000Y-125288200D01*
X107312000Y-125288200D01*
X107312000Y-125496200D01*
X107292000Y-125496200D01*
X107292000Y-126876300D01*
X107456500Y-127040800D01*
X108741000Y-127040800D01*
X108741000Y-128960101D01*
X107948482Y-128631018D01*
X106990520Y-128630182D01*
X106105159Y-128996006D01*
X105427187Y-129672796D01*
X105059818Y-130557518D01*
X105058982Y-131515480D01*
X105398675Y-132337600D01*
X104426873Y-132337600D01*
X104499706Y-132264767D01*
X104599880Y-132022924D01*
X104599880Y-131042940D01*
X104435380Y-130878440D01*
X102928280Y-130878440D01*
X102928280Y-130898440D01*
X102720280Y-130898440D01*
X102720280Y-130878440D01*
X101213180Y-130878440D01*
X101048680Y-131042940D01*
X101048680Y-132022924D01*
X101148854Y-132264767D01*
X101221687Y-132337600D01*
X76171000Y-132337600D01*
X76171000Y-131183586D01*
X76195895Y-131243687D01*
X76380993Y-131428786D01*
X76622836Y-131528960D01*
X77602820Y-131528960D01*
X77767320Y-131364460D01*
X77767320Y-129857360D01*
X77975320Y-129857360D01*
X77975320Y-131364460D01*
X78139820Y-131528960D01*
X79119804Y-131528960D01*
X79361647Y-131428786D01*
X79546745Y-131243687D01*
X79646920Y-131001845D01*
X79646920Y-130021860D01*
X79482420Y-129857360D01*
X77975320Y-129857360D01*
X77767320Y-129857360D01*
X77747320Y-129857360D01*
X77747320Y-129649360D01*
X77767320Y-129649360D01*
X77767320Y-128142260D01*
X77975320Y-128142260D01*
X77975320Y-129649360D01*
X79482420Y-129649360D01*
X79646920Y-129484860D01*
X79646920Y-128504875D01*
X79546745Y-128263033D01*
X79361647Y-128077934D01*
X79119804Y-127977760D01*
X78139820Y-127977760D01*
X77975320Y-128142260D01*
X77767320Y-128142260D01*
X77602820Y-127977760D01*
X76622836Y-127977760D01*
X76380993Y-128077934D01*
X76195895Y-128263033D01*
X76171000Y-128323134D01*
X76171000Y-126323968D01*
X76227101Y-126411152D01*
X76446986Y-126561393D01*
X76708000Y-126614250D01*
X78932206Y-126614250D01*
X81750840Y-129432885D01*
X81750840Y-130001010D01*
X81796722Y-130244850D01*
X81940831Y-130468802D01*
X82160716Y-130619043D01*
X82421730Y-130671900D01*
X83922870Y-130671900D01*
X84166710Y-130626018D01*
X84390662Y-130481909D01*
X84540903Y-130262024D01*
X84593760Y-130001010D01*
X84593760Y-129274075D01*
X84611704Y-129247220D01*
X84730299Y-128651000D01*
X84611704Y-128054779D01*
X84593760Y-128027924D01*
X84593760Y-127300990D01*
X84547878Y-127057150D01*
X84403769Y-126833198D01*
X84183884Y-126682957D01*
X83922870Y-126630100D01*
X83354745Y-126630100D01*
X80448732Y-123724088D01*
X80361817Y-123666013D01*
X79943281Y-123386356D01*
X79455621Y-123289354D01*
X79424099Y-123240368D01*
X79204214Y-123090127D01*
X78943200Y-123037270D01*
X76708000Y-123037270D01*
X76464160Y-123083152D01*
X76240208Y-123227261D01*
X76171000Y-123328550D01*
X76171000Y-121514581D01*
X76201701Y-121562292D01*
X76421586Y-121712533D01*
X76682600Y-121765390D01*
X78917800Y-121765390D01*
X79161640Y-121719508D01*
X79385592Y-121575399D01*
X79413264Y-121534900D01*
X79933800Y-121534900D01*
X80530021Y-121416304D01*
X81035472Y-121078572D01*
X81066544Y-121047500D01*
X83782200Y-121047500D01*
X83782200Y-125065800D01*
X83900796Y-125662021D01*
X84088781Y-125943360D01*
X84238528Y-126167472D01*
X86414900Y-128343844D01*
X86414900Y-128651000D01*
X86533496Y-129247221D01*
X86551440Y-129274076D01*
X86551440Y-130001010D01*
X86597322Y-130244850D01*
X86741431Y-130468802D01*
X86961316Y-130619043D01*
X87222330Y-130671900D01*
X88723470Y-130671900D01*
X88967310Y-130626018D01*
X89191262Y-130481909D01*
X89341503Y-130262024D01*
X89394360Y-130001010D01*
X89394360Y-129819300D01*
X94178548Y-129819300D01*
X94242200Y-129832190D01*
X95742200Y-129832190D01*
X95986040Y-129786308D01*
X96209992Y-129642199D01*
X96346454Y-129442480D01*
X96384375Y-129534027D01*
X96569473Y-129719126D01*
X96811316Y-129819300D01*
X97423700Y-129819300D01*
X97588200Y-129654800D01*
X97588200Y-128615300D01*
X97796200Y-128615300D01*
X97796200Y-129654800D01*
X97960700Y-129819300D01*
X98573084Y-129819300D01*
X98814927Y-129719126D01*
X99000025Y-129534027D01*
X99003368Y-129525956D01*
X101048680Y-129525956D01*
X101048680Y-130505940D01*
X101213180Y-130670440D01*
X102720280Y-130670440D01*
X102720280Y-129163340D01*
X102928280Y-129163340D01*
X102928280Y-130670440D01*
X104435380Y-130670440D01*
X104599880Y-130505940D01*
X104599880Y-129525956D01*
X104499706Y-129284113D01*
X104314607Y-129099015D01*
X104072765Y-128998840D01*
X103092780Y-128998840D01*
X102928280Y-129163340D01*
X102720280Y-129163340D01*
X102555780Y-128998840D01*
X101575795Y-128998840D01*
X101333953Y-129099015D01*
X101148854Y-129284113D01*
X101048680Y-129525956D01*
X99003368Y-129525956D01*
X99100200Y-129292185D01*
X99100200Y-128779800D01*
X98935700Y-128615300D01*
X97796200Y-128615300D01*
X97588200Y-128615300D01*
X97568200Y-128615300D01*
X97568200Y-128407300D01*
X97588200Y-128407300D01*
X97588200Y-127367800D01*
X97796200Y-127367800D01*
X97796200Y-128407300D01*
X98935700Y-128407300D01*
X99100200Y-128242800D01*
X99100200Y-127730415D01*
X99000025Y-127488573D01*
X98814927Y-127303474D01*
X98573084Y-127203300D01*
X97960700Y-127203300D01*
X97796200Y-127367800D01*
X97588200Y-127367800D01*
X97423700Y-127203300D01*
X96811316Y-127203300D01*
X96569473Y-127303474D01*
X96384375Y-127488573D01*
X96345172Y-127583216D01*
X96223099Y-127393508D01*
X96003214Y-127243267D01*
X95742200Y-127190410D01*
X94242200Y-127190410D01*
X94173696Y-127203300D01*
X89432398Y-127203300D01*
X89412304Y-127102279D01*
X89074572Y-126596828D01*
X87284984Y-124807240D01*
X91133660Y-124807240D01*
X91133660Y-125169625D01*
X91233835Y-125411467D01*
X91418933Y-125596566D01*
X91660776Y-125696740D01*
X93023160Y-125696740D01*
X93187660Y-125532240D01*
X93187660Y-124642740D01*
X93395660Y-124642740D01*
X93395660Y-125532240D01*
X93560160Y-125696740D01*
X94922544Y-125696740D01*
X95164387Y-125596566D01*
X95349485Y-125411467D01*
X95449660Y-125169625D01*
X95449660Y-124807240D01*
X95401400Y-124758980D01*
X98733340Y-124758980D01*
X98733340Y-125171365D01*
X98833515Y-125413207D01*
X99018613Y-125598306D01*
X99260456Y-125698480D01*
X100622840Y-125698480D01*
X100787340Y-125533980D01*
X100787340Y-124594480D01*
X100995340Y-124594480D01*
X100995340Y-125533980D01*
X101159840Y-125698480D01*
X102522224Y-125698480D01*
X102613433Y-125660700D01*
X104548800Y-125660700D01*
X104548800Y-126513684D01*
X104648974Y-126755527D01*
X104834073Y-126940625D01*
X105075915Y-127040800D01*
X106919500Y-127040800D01*
X107084000Y-126876300D01*
X107084000Y-125496200D01*
X104713300Y-125496200D01*
X104548800Y-125660700D01*
X102613433Y-125660700D01*
X102764067Y-125598306D01*
X102949165Y-125413207D01*
X103049340Y-125171365D01*
X103049340Y-124758980D01*
X102884840Y-124594480D01*
X100995340Y-124594480D01*
X100787340Y-124594480D01*
X98897840Y-124594480D01*
X98733340Y-124758980D01*
X95401400Y-124758980D01*
X95285160Y-124642740D01*
X93395660Y-124642740D01*
X93187660Y-124642740D01*
X91298160Y-124642740D01*
X91133660Y-124807240D01*
X87284984Y-124807240D01*
X86898200Y-124420456D01*
X86898200Y-124305034D01*
X87029186Y-124394533D01*
X87290200Y-124447390D01*
X88790200Y-124447390D01*
X89034040Y-124401508D01*
X89257992Y-124257399D01*
X89408233Y-124037514D01*
X89434489Y-123907855D01*
X91133660Y-123907855D01*
X91133660Y-124270240D01*
X91298160Y-124434740D01*
X93187660Y-124434740D01*
X93187660Y-123545240D01*
X93395660Y-123545240D01*
X93395660Y-124434740D01*
X95285160Y-124434740D01*
X95449660Y-124270240D01*
X95449660Y-123907855D01*
X95408960Y-123809595D01*
X98733340Y-123809595D01*
X98733340Y-124221980D01*
X98897840Y-124386480D01*
X100787340Y-124386480D01*
X100787340Y-123446980D01*
X100995340Y-123446980D01*
X100995340Y-124386480D01*
X102884840Y-124386480D01*
X103000604Y-124270716D01*
X104548800Y-124270716D01*
X104548800Y-125123700D01*
X104713300Y-125288200D01*
X107084000Y-125288200D01*
X107084000Y-123908100D01*
X106919500Y-123743600D01*
X105075915Y-123743600D01*
X104834073Y-123843775D01*
X104648974Y-124028873D01*
X104548800Y-124270716D01*
X103000604Y-124270716D01*
X103049340Y-124221980D01*
X103049340Y-123809595D01*
X102949165Y-123567753D01*
X102764067Y-123382654D01*
X102522224Y-123282480D01*
X101159840Y-123282480D01*
X100995340Y-123446980D01*
X100787340Y-123446980D01*
X100622840Y-123282480D01*
X99260456Y-123282480D01*
X99018613Y-123382654D01*
X98833515Y-123567753D01*
X98733340Y-123809595D01*
X95408960Y-123809595D01*
X95349485Y-123666013D01*
X95164387Y-123480914D01*
X94922544Y-123380740D01*
X93560160Y-123380740D01*
X93395660Y-123545240D01*
X93187660Y-123545240D01*
X93023160Y-123380740D01*
X91660776Y-123380740D01*
X91418933Y-123480914D01*
X91233835Y-123666013D01*
X91133660Y-123907855D01*
X89434489Y-123907855D01*
X89461090Y-123776500D01*
X89461090Y-123343270D01*
X89756840Y-123047520D01*
X91726131Y-123047520D01*
X91791660Y-123060790D01*
X94791660Y-123060790D01*
X95035500Y-123014908D01*
X95259452Y-122870799D01*
X95409693Y-122650914D01*
X95462550Y-122389900D01*
X95462550Y-121389140D01*
X95416668Y-121145300D01*
X95272559Y-120921348D01*
X95052674Y-120771107D01*
X94791660Y-120718250D01*
X91791660Y-120718250D01*
X91721137Y-120731520D01*
X89277185Y-120731520D01*
X89277180Y-120731519D01*
X88834033Y-120819668D01*
X88458350Y-121070690D01*
X87723430Y-121805610D01*
X87290200Y-121805610D01*
X87046360Y-121851492D01*
X86898200Y-121946830D01*
X86898200Y-121692844D01*
X88998372Y-119592672D01*
X89126042Y-119401600D01*
X89336104Y-119087221D01*
X89454700Y-118491000D01*
X89454700Y-116814600D01*
X89336104Y-116218379D01*
X89318160Y-116191524D01*
X89318160Y-115464590D01*
X89272278Y-115220750D01*
X89128169Y-114996798D01*
X88908284Y-114846557D01*
X88647270Y-114793700D01*
X87146130Y-114793700D01*
X86902290Y-114839582D01*
X86678338Y-114983691D01*
X86528097Y-115203576D01*
X86475240Y-115464590D01*
X86475240Y-116191524D01*
X86457296Y-116218379D01*
X86338700Y-116814600D01*
X86338700Y-117845656D01*
X84238528Y-119945828D01*
X83900796Y-120451279D01*
X83782200Y-121047500D01*
X81066544Y-121047500D01*
X83278545Y-118835500D01*
X83846670Y-118835500D01*
X84090510Y-118789618D01*
X84314462Y-118645509D01*
X84464703Y-118425624D01*
X84517560Y-118164610D01*
X84517560Y-117437677D01*
X84535505Y-117410820D01*
X84654100Y-116814600D01*
X84535505Y-116218379D01*
X84517560Y-116191522D01*
X84517560Y-115464590D01*
X84471678Y-115220750D01*
X84327569Y-114996798D01*
X84107684Y-114846557D01*
X83846670Y-114793700D01*
X82345530Y-114793700D01*
X82101690Y-114839582D01*
X81877738Y-114983691D01*
X81727497Y-115203576D01*
X81674640Y-115464590D01*
X81674640Y-116032715D01*
X79349479Y-118357877D01*
X79178814Y-118241267D01*
X78917800Y-118188410D01*
X76682600Y-118188410D01*
X76438760Y-118234292D01*
X76214808Y-118378401D01*
X76171000Y-118442516D01*
X76171000Y-117140499D01*
X76963518Y-117469582D01*
X77921480Y-117470418D01*
X78806841Y-117104594D01*
X79484813Y-116427804D01*
X79852182Y-115543082D01*
X79853018Y-114585120D01*
X79513325Y-113763000D01*
X101197973Y-113763000D01*
X101142368Y-113798781D01*
X101142368Y-113798781D01*
G37*
X101142368Y-113798781D02*
X100992127Y-114018666D01*
X100939270Y-114279680D01*
X100939270Y-115100200D01*
X98505852Y-115100200D01*
X98442200Y-115087310D01*
X96942200Y-115087310D01*
X96698360Y-115133192D01*
X96474408Y-115277301D01*
X96340642Y-115473075D01*
X96223099Y-115290408D01*
X96003214Y-115140167D01*
X95742200Y-115087310D01*
X94242200Y-115087310D01*
X93998360Y-115133192D01*
X93774408Y-115277301D01*
X93624167Y-115497186D01*
X93571310Y-115758200D01*
X93571310Y-117058200D01*
X93617192Y-117302040D01*
X93684200Y-117406174D01*
X93684200Y-117915700D01*
X93783766Y-118416250D01*
X94067304Y-118840596D01*
X95506204Y-120279496D01*
X95930550Y-120563034D01*
X96431100Y-120662601D01*
X96431105Y-120662600D01*
X99583340Y-120662600D01*
X99583340Y-120718250D01*
X99391340Y-120718250D01*
X99147500Y-120764132D01*
X98923548Y-120908241D01*
X98773307Y-121128126D01*
X98720450Y-121389140D01*
X98720450Y-122389900D01*
X98766332Y-122633740D01*
X98910441Y-122857692D01*
X99130326Y-123007933D01*
X99391340Y-123060790D01*
X100335170Y-123060790D01*
X100390790Y-123097954D01*
X100891340Y-123197520D01*
X101391890Y-123097954D01*
X101447510Y-123060790D01*
X102391340Y-123060790D01*
X102635180Y-123014908D01*
X102859132Y-122870799D01*
X103009373Y-122650914D01*
X103062230Y-122389900D01*
X103062230Y-121389140D01*
X103016348Y-121145300D01*
X102872239Y-120921348D01*
X102652354Y-120771107D01*
X102391340Y-120718250D01*
X102199340Y-120718250D01*
X102199340Y-120662600D01*
X104535910Y-120662600D01*
X104535910Y-121382800D01*
X104581792Y-121626640D01*
X104725901Y-121850592D01*
X104945786Y-122000833D01*
X105206800Y-122053690D01*
X108741000Y-122053690D01*
X108741000Y-123743600D01*
X107456500Y-123743600D01*
X107292000Y-123908100D01*
X107292000Y-125288200D01*
X107312000Y-125288200D01*
X107312000Y-125496200D01*
X107292000Y-125496200D01*
X107292000Y-126876300D01*
X107456500Y-127040800D01*
X108741000Y-127040800D01*
X108741000Y-128960101D01*
X107948482Y-128631018D01*
X106990520Y-128630182D01*
X106105159Y-128996006D01*
X105427187Y-129672796D01*
X105059818Y-130557518D01*
X105058982Y-131515480D01*
X105398675Y-132337600D01*
X104426873Y-132337600D01*
X104499706Y-132264767D01*
X104599880Y-132022924D01*
X104599880Y-131042940D01*
X104435380Y-130878440D01*
X102928280Y-130878440D01*
X102928280Y-130898440D01*
X102720280Y-130898440D01*
X102720280Y-130878440D01*
X101213180Y-130878440D01*
X101048680Y-131042940D01*
X101048680Y-132022924D01*
X101148854Y-132264767D01*
X101221687Y-132337600D01*
X76171000Y-132337600D01*
X76171000Y-131183586D01*
X76195895Y-131243687D01*
X76380993Y-131428786D01*
X76622836Y-131528960D01*
X77602820Y-131528960D01*
X77767320Y-131364460D01*
X77767320Y-129857360D01*
X77975320Y-129857360D01*
X77975320Y-131364460D01*
X78139820Y-131528960D01*
X79119804Y-131528960D01*
X79361647Y-131428786D01*
X79546745Y-131243687D01*
X79646920Y-131001845D01*
X79646920Y-130021860D01*
X79482420Y-129857360D01*
X77975320Y-129857360D01*
X77767320Y-129857360D01*
X77747320Y-129857360D01*
X77747320Y-129649360D01*
X77767320Y-129649360D01*
X77767320Y-128142260D01*
X77975320Y-128142260D01*
X77975320Y-129649360D01*
X79482420Y-129649360D01*
X79646920Y-129484860D01*
X79646920Y-128504875D01*
X79546745Y-128263033D01*
X79361647Y-128077934D01*
X79119804Y-127977760D01*
X78139820Y-127977760D01*
X77975320Y-128142260D01*
X77767320Y-128142260D01*
X77602820Y-127977760D01*
X76622836Y-127977760D01*
X76380993Y-128077934D01*
X76195895Y-128263033D01*
X76171000Y-128323134D01*
X76171000Y-126323968D01*
X76227101Y-126411152D01*
X76446986Y-126561393D01*
X76708000Y-126614250D01*
X78932206Y-126614250D01*
X81750840Y-129432885D01*
X81750840Y-130001010D01*
X81796722Y-130244850D01*
X81940831Y-130468802D01*
X82160716Y-130619043D01*
X82421730Y-130671900D01*
X83922870Y-130671900D01*
X84166710Y-130626018D01*
X84390662Y-130481909D01*
X84540903Y-130262024D01*
X84593760Y-130001010D01*
X84593760Y-129274075D01*
X84611704Y-129247220D01*
X84730299Y-128651000D01*
X84611704Y-128054779D01*
X84593760Y-128027924D01*
X84593760Y-127300990D01*
X84547878Y-127057150D01*
X84403769Y-126833198D01*
X84183884Y-126682957D01*
X83922870Y-126630100D01*
X83354745Y-126630100D01*
X80448732Y-123724088D01*
X80361817Y-123666013D01*
X79943281Y-123386356D01*
X79455621Y-123289354D01*
X79424099Y-123240368D01*
X79204214Y-123090127D01*
X78943200Y-123037270D01*
X76708000Y-123037270D01*
X76464160Y-123083152D01*
X76240208Y-123227261D01*
X76171000Y-123328550D01*
X76171000Y-121514581D01*
X76201701Y-121562292D01*
X76421586Y-121712533D01*
X76682600Y-121765390D01*
X78917800Y-121765390D01*
X79161640Y-121719508D01*
X79385592Y-121575399D01*
X79413264Y-121534900D01*
X79933800Y-121534900D01*
X80530021Y-121416304D01*
X81035472Y-121078572D01*
X81066544Y-121047500D01*
X83782200Y-121047500D01*
X83782200Y-125065800D01*
X83900796Y-125662021D01*
X84088781Y-125943360D01*
X84238528Y-126167472D01*
X86414900Y-128343844D01*
X86414900Y-128651000D01*
X86533496Y-129247221D01*
X86551440Y-129274076D01*
X86551440Y-130001010D01*
X86597322Y-130244850D01*
X86741431Y-130468802D01*
X86961316Y-130619043D01*
X87222330Y-130671900D01*
X88723470Y-130671900D01*
X88967310Y-130626018D01*
X89191262Y-130481909D01*
X89341503Y-130262024D01*
X89394360Y-130001010D01*
X89394360Y-129819300D01*
X94178548Y-129819300D01*
X94242200Y-129832190D01*
X95742200Y-129832190D01*
X95986040Y-129786308D01*
X96209992Y-129642199D01*
X96346454Y-129442480D01*
X96384375Y-129534027D01*
X96569473Y-129719126D01*
X96811316Y-129819300D01*
X97423700Y-129819300D01*
X97588200Y-129654800D01*
X97588200Y-128615300D01*
X97796200Y-128615300D01*
X97796200Y-129654800D01*
X97960700Y-129819300D01*
X98573084Y-129819300D01*
X98814927Y-129719126D01*
X99000025Y-129534027D01*
X99003368Y-129525956D01*
X101048680Y-129525956D01*
X101048680Y-130505940D01*
X101213180Y-130670440D01*
X102720280Y-130670440D01*
X102720280Y-129163340D01*
X102928280Y-129163340D01*
X102928280Y-130670440D01*
X104435380Y-130670440D01*
X104599880Y-130505940D01*
X104599880Y-129525956D01*
X104499706Y-129284113D01*
X104314607Y-129099015D01*
X104072765Y-128998840D01*
X103092780Y-128998840D01*
X102928280Y-129163340D01*
X102720280Y-129163340D01*
X102555780Y-128998840D01*
X101575795Y-128998840D01*
X101333953Y-129099015D01*
X101148854Y-129284113D01*
X101048680Y-129525956D01*
X99003368Y-129525956D01*
X99100200Y-129292185D01*
X99100200Y-128779800D01*
X98935700Y-128615300D01*
X97796200Y-128615300D01*
X97588200Y-128615300D01*
X97568200Y-128615300D01*
X97568200Y-128407300D01*
X97588200Y-128407300D01*
X97588200Y-127367800D01*
X97796200Y-127367800D01*
X97796200Y-128407300D01*
X98935700Y-128407300D01*
X99100200Y-128242800D01*
X99100200Y-127730415D01*
X99000025Y-127488573D01*
X98814927Y-127303474D01*
X98573084Y-127203300D01*
X97960700Y-127203300D01*
X97796200Y-127367800D01*
X97588200Y-127367800D01*
X97423700Y-127203300D01*
X96811316Y-127203300D01*
X96569473Y-127303474D01*
X96384375Y-127488573D01*
X96345172Y-127583216D01*
X96223099Y-127393508D01*
X96003214Y-127243267D01*
X95742200Y-127190410D01*
X94242200Y-127190410D01*
X94173696Y-127203300D01*
X89432398Y-127203300D01*
X89412304Y-127102279D01*
X89074572Y-126596828D01*
X87284984Y-124807240D01*
X91133660Y-124807240D01*
X91133660Y-125169625D01*
X91233835Y-125411467D01*
X91418933Y-125596566D01*
X91660776Y-125696740D01*
X93023160Y-125696740D01*
X93187660Y-125532240D01*
X93187660Y-124642740D01*
X93395660Y-124642740D01*
X93395660Y-125532240D01*
X93560160Y-125696740D01*
X94922544Y-125696740D01*
X95164387Y-125596566D01*
X95349485Y-125411467D01*
X95449660Y-125169625D01*
X95449660Y-124807240D01*
X95401400Y-124758980D01*
X98733340Y-124758980D01*
X98733340Y-125171365D01*
X98833515Y-125413207D01*
X99018613Y-125598306D01*
X99260456Y-125698480D01*
X100622840Y-125698480D01*
X100787340Y-125533980D01*
X100787340Y-124594480D01*
X100995340Y-124594480D01*
X100995340Y-125533980D01*
X101159840Y-125698480D01*
X102522224Y-125698480D01*
X102613433Y-125660700D01*
X104548800Y-125660700D01*
X104548800Y-126513684D01*
X104648974Y-126755527D01*
X104834073Y-126940625D01*
X105075915Y-127040800D01*
X106919500Y-127040800D01*
X107084000Y-126876300D01*
X107084000Y-125496200D01*
X104713300Y-125496200D01*
X104548800Y-125660700D01*
X102613433Y-125660700D01*
X102764067Y-125598306D01*
X102949165Y-125413207D01*
X103049340Y-125171365D01*
X103049340Y-124758980D01*
X102884840Y-124594480D01*
X100995340Y-124594480D01*
X100787340Y-124594480D01*
X98897840Y-124594480D01*
X98733340Y-124758980D01*
X95401400Y-124758980D01*
X95285160Y-124642740D01*
X93395660Y-124642740D01*
X93187660Y-124642740D01*
X91298160Y-124642740D01*
X91133660Y-124807240D01*
X87284984Y-124807240D01*
X86898200Y-124420456D01*
X86898200Y-124305034D01*
X87029186Y-124394533D01*
X87290200Y-124447390D01*
X88790200Y-124447390D01*
X89034040Y-124401508D01*
X89257992Y-124257399D01*
X89408233Y-124037514D01*
X89434489Y-123907855D01*
X91133660Y-123907855D01*
X91133660Y-124270240D01*
X91298160Y-124434740D01*
X93187660Y-124434740D01*
X93187660Y-123545240D01*
X93395660Y-123545240D01*
X93395660Y-124434740D01*
X95285160Y-124434740D01*
X95449660Y-124270240D01*
X95449660Y-123907855D01*
X95408960Y-123809595D01*
X98733340Y-123809595D01*
X98733340Y-124221980D01*
X98897840Y-124386480D01*
X100787340Y-124386480D01*
X100787340Y-123446980D01*
X100995340Y-123446980D01*
X100995340Y-124386480D01*
X102884840Y-124386480D01*
X103000604Y-124270716D01*
X104548800Y-124270716D01*
X104548800Y-125123700D01*
X104713300Y-125288200D01*
X107084000Y-125288200D01*
X107084000Y-123908100D01*
X106919500Y-123743600D01*
X105075915Y-123743600D01*
X104834073Y-123843775D01*
X104648974Y-124028873D01*
X104548800Y-124270716D01*
X103000604Y-124270716D01*
X103049340Y-124221980D01*
X103049340Y-123809595D01*
X102949165Y-123567753D01*
X102764067Y-123382654D01*
X102522224Y-123282480D01*
X101159840Y-123282480D01*
X100995340Y-123446980D01*
X100787340Y-123446980D01*
X100622840Y-123282480D01*
X99260456Y-123282480D01*
X99018613Y-123382654D01*
X98833515Y-123567753D01*
X98733340Y-123809595D01*
X95408960Y-123809595D01*
X95349485Y-123666013D01*
X95164387Y-123480914D01*
X94922544Y-123380740D01*
X93560160Y-123380740D01*
X93395660Y-123545240D01*
X93187660Y-123545240D01*
X93023160Y-123380740D01*
X91660776Y-123380740D01*
X91418933Y-123480914D01*
X91233835Y-123666013D01*
X91133660Y-123907855D01*
X89434489Y-123907855D01*
X89461090Y-123776500D01*
X89461090Y-123343270D01*
X89756840Y-123047520D01*
X91726131Y-123047520D01*
X91791660Y-123060790D01*
X94791660Y-123060790D01*
X95035500Y-123014908D01*
X95259452Y-122870799D01*
X95409693Y-122650914D01*
X95462550Y-122389900D01*
X95462550Y-121389140D01*
X95416668Y-121145300D01*
X95272559Y-120921348D01*
X95052674Y-120771107D01*
X94791660Y-120718250D01*
X91791660Y-120718250D01*
X91721137Y-120731520D01*
X89277185Y-120731520D01*
X89277180Y-120731519D01*
X88834033Y-120819668D01*
X88458350Y-121070690D01*
X87723430Y-121805610D01*
X87290200Y-121805610D01*
X87046360Y-121851492D01*
X86898200Y-121946830D01*
X86898200Y-121692844D01*
X88998372Y-119592672D01*
X89126042Y-119401600D01*
X89336104Y-119087221D01*
X89454700Y-118491000D01*
X89454700Y-116814600D01*
X89336104Y-116218379D01*
X89318160Y-116191524D01*
X89318160Y-115464590D01*
X89272278Y-115220750D01*
X89128169Y-114996798D01*
X88908284Y-114846557D01*
X88647270Y-114793700D01*
X87146130Y-114793700D01*
X86902290Y-114839582D01*
X86678338Y-114983691D01*
X86528097Y-115203576D01*
X86475240Y-115464590D01*
X86475240Y-116191524D01*
X86457296Y-116218379D01*
X86338700Y-116814600D01*
X86338700Y-117845656D01*
X84238528Y-119945828D01*
X83900796Y-120451279D01*
X83782200Y-121047500D01*
X81066544Y-121047500D01*
X83278545Y-118835500D01*
X83846670Y-118835500D01*
X84090510Y-118789618D01*
X84314462Y-118645509D01*
X84464703Y-118425624D01*
X84517560Y-118164610D01*
X84517560Y-117437677D01*
X84535505Y-117410820D01*
X84654100Y-116814600D01*
X84535505Y-116218379D01*
X84517560Y-116191522D01*
X84517560Y-115464590D01*
X84471678Y-115220750D01*
X84327569Y-114996798D01*
X84107684Y-114846557D01*
X83846670Y-114793700D01*
X82345530Y-114793700D01*
X82101690Y-114839582D01*
X81877738Y-114983691D01*
X81727497Y-115203576D01*
X81674640Y-115464590D01*
X81674640Y-116032715D01*
X79349479Y-118357877D01*
X79178814Y-118241267D01*
X78917800Y-118188410D01*
X76682600Y-118188410D01*
X76438760Y-118234292D01*
X76214808Y-118378401D01*
X76171000Y-118442516D01*
X76171000Y-117140499D01*
X76963518Y-117469582D01*
X77921480Y-117470418D01*
X78806841Y-117104594D01*
X79484813Y-116427804D01*
X79852182Y-115543082D01*
X79853018Y-114585120D01*
X79513325Y-113763000D01*
X101197973Y-113763000D01*
X101142368Y-113798781D01*
M02*
